<mxfile host="app.diagrams.net" agent="Mozilla/5.0 (Windows NT 10.0; Win64; x64) AppleWebKit/537.36 (KHTML, like Gecko) Chrome/139.0.0.0 Safari/537.36" version="28.1.1">
  <diagram name="Page-1" id="5n9Uv1ab2O1zYGrJ5PhZ">
    <mxGraphModel dx="1042" dy="570" grid="1" gridSize="10" guides="1" tooltips="1" connect="1" arrows="1" fold="1" page="1" pageScale="1" pageWidth="827" pageHeight="1169" math="0" shadow="0">
      <root>
        <mxCell id="0" />
        <mxCell id="1" parent="0" />
        <mxCell id="YcOxB0TSNOIj7P92Pvfq-3" value="" style="edgeStyle=orthogonalEdgeStyle;rounded=0;orthogonalLoop=1;jettySize=auto;html=1;" edge="1" parent="1" source="YcOxB0TSNOIj7P92Pvfq-1" target="YcOxB0TSNOIj7P92Pvfq-2">
          <mxGeometry relative="1" as="geometry" />
        </mxCell>
        <mxCell id="YcOxB0TSNOIj7P92Pvfq-1" value="&lt;font style=&quot;color: light-dark(rgb(0, 0, 0), rgb(0, 0, 0)); font-size: 20px;&quot;&gt;Plan&lt;/font&gt;" style="ellipse;whiteSpace=wrap;html=1;fillColor=#a20025;fontColor=#ffffff;strokeColor=#6F0000;" vertex="1" parent="1">
          <mxGeometry x="310" y="10" width="190" height="80" as="geometry" />
        </mxCell>
        <mxCell id="YcOxB0TSNOIj7P92Pvfq-5" value="" style="edgeStyle=orthogonalEdgeStyle;rounded=0;orthogonalLoop=1;jettySize=auto;html=1;" edge="1" parent="1" source="YcOxB0TSNOIj7P92Pvfq-2" target="YcOxB0TSNOIj7P92Pvfq-4">
          <mxGeometry relative="1" as="geometry" />
        </mxCell>
        <mxCell id="YcOxB0TSNOIj7P92Pvfq-2" value="&lt;font style=&quot;font-size: 20px;&quot;&gt;Develop&lt;/font&gt;" style="ellipse;whiteSpace=wrap;html=1;fillColor=#0050ef;fontColor=#ffffff;strokeColor=#001DBC;" vertex="1" parent="1">
          <mxGeometry x="310" y="170" width="190" height="80" as="geometry" />
        </mxCell>
        <mxCell id="YcOxB0TSNOIj7P92Pvfq-7" value="" style="edgeStyle=orthogonalEdgeStyle;rounded=0;orthogonalLoop=1;jettySize=auto;html=1;" edge="1" parent="1" source="YcOxB0TSNOIj7P92Pvfq-4" target="YcOxB0TSNOIj7P92Pvfq-6">
          <mxGeometry relative="1" as="geometry" />
        </mxCell>
        <mxCell id="YcOxB0TSNOIj7P92Pvfq-4" value="&lt;font style=&quot;font-size: 20px;&quot;&gt;Build&lt;/font&gt;" style="ellipse;whiteSpace=wrap;html=1;fillColor=#008a00;fontColor=#ffffff;strokeColor=#005700;" vertex="1" parent="1">
          <mxGeometry x="310" y="330" width="190" height="80" as="geometry" />
        </mxCell>
        <mxCell id="YcOxB0TSNOIj7P92Pvfq-9" value="" style="edgeStyle=orthogonalEdgeStyle;rounded=0;orthogonalLoop=1;jettySize=auto;html=1;" edge="1" parent="1" source="YcOxB0TSNOIj7P92Pvfq-6" target="YcOxB0TSNOIj7P92Pvfq-8">
          <mxGeometry relative="1" as="geometry" />
        </mxCell>
        <mxCell id="YcOxB0TSNOIj7P92Pvfq-6" value="&lt;font style=&quot;font-size: 20px;&quot;&gt;Test&lt;/font&gt;" style="ellipse;whiteSpace=wrap;html=1;fillColor=#e51400;fontColor=#ffffff;strokeColor=#B20000;" vertex="1" parent="1">
          <mxGeometry x="310" y="490" width="190" height="80" as="geometry" />
        </mxCell>
        <mxCell id="YcOxB0TSNOIj7P92Pvfq-11" value="" style="edgeStyle=orthogonalEdgeStyle;rounded=0;orthogonalLoop=1;jettySize=auto;html=1;" edge="1" parent="1" source="YcOxB0TSNOIj7P92Pvfq-8" target="YcOxB0TSNOIj7P92Pvfq-10">
          <mxGeometry relative="1" as="geometry" />
        </mxCell>
        <mxCell id="YcOxB0TSNOIj7P92Pvfq-8" value="&lt;font style=&quot;font-size: 20px;&quot;&gt;Release&lt;/font&gt;" style="ellipse;whiteSpace=wrap;html=1;fillColor=#76608a;fontColor=#ffffff;strokeColor=#432D57;" vertex="1" parent="1">
          <mxGeometry x="310" y="650" width="190" height="80" as="geometry" />
        </mxCell>
        <mxCell id="YcOxB0TSNOIj7P92Pvfq-13" value="" style="edgeStyle=orthogonalEdgeStyle;rounded=0;orthogonalLoop=1;jettySize=auto;html=1;" edge="1" parent="1" source="YcOxB0TSNOIj7P92Pvfq-10" target="YcOxB0TSNOIj7P92Pvfq-12">
          <mxGeometry relative="1" as="geometry" />
        </mxCell>
        <mxCell id="YcOxB0TSNOIj7P92Pvfq-10" value="&lt;font style=&quot;font-size: 20px;&quot;&gt;Deploy&lt;/font&gt;" style="ellipse;whiteSpace=wrap;html=1;fillColor=#fa6800;fontColor=#000000;strokeColor=#C73500;" vertex="1" parent="1">
          <mxGeometry x="310" y="810" width="190" height="80" as="geometry" />
        </mxCell>
        <mxCell id="YcOxB0TSNOIj7P92Pvfq-15" value="" style="edgeStyle=orthogonalEdgeStyle;rounded=0;orthogonalLoop=1;jettySize=auto;html=1;" edge="1" parent="1" source="YcOxB0TSNOIj7P92Pvfq-12" target="YcOxB0TSNOIj7P92Pvfq-14">
          <mxGeometry relative="1" as="geometry" />
        </mxCell>
        <mxCell id="YcOxB0TSNOIj7P92Pvfq-12" value="&lt;span style=&quot;font-size: 20px;&quot;&gt;Operate&lt;/span&gt;" style="ellipse;whiteSpace=wrap;html=1;fillColor=#6d8764;fontColor=#ffffff;strokeColor=#3A5431;" vertex="1" parent="1">
          <mxGeometry x="310" y="970" width="190" height="80" as="geometry" />
        </mxCell>
        <mxCell id="YcOxB0TSNOIj7P92Pvfq-14" value="&lt;span style=&quot;font-size: 20px;&quot;&gt;Monitor&lt;/span&gt;" style="ellipse;whiteSpace=wrap;html=1;fillColor=#647687;fontColor=#ffffff;strokeColor=#314354;" vertex="1" parent="1">
          <mxGeometry x="310" y="1130" width="190" height="80" as="geometry" />
        </mxCell>
      </root>
    </mxGraphModel>
  </diagram>
</mxfile>
